# xmcd CD database file
#
# Track frame offsets:
#	150
#	119661
#	187440
#
# Disc length: 4487 seconds
#
# Revision: 0
# Processed by: cddbd v1.5.1PL0 Copyright (c) Steve Scherf et al.
# Submitted via: CDex 1.50
#
DISCID=2e118503
DTITLE=Joe Henderson - John Scofield Quartet - Live at the Blue Note [CD1]
DYEAR=2004
DGENRE=Jazz
TTITLE0=Isfahan->Invitation
TTITLE1=Recorda-me
TTITLE2=unknown
EXTD=YEAR: 2004
EXTT0=
EXTT1=
EXTT2=
PLAYORDER=
